<svg width="652" height="159" viewBox="0 0 652 159" fill="none" xmlns="http://www.w3.org/2000/svg">
<rect x="1" y="1" width="650" height="157" rx="29" fill="#060C24" fill-opacity="0.6"/>
<rect x="1" y="1" width="650" height="157" rx="29" stroke="url(#paint0_linear_2044_360)" stroke-width="2"/>
<path d="M326.352 89.1324L322.018 77.5073H324.02L327.87 88.0357H326.924L330.928 77.5073H332.711L336.627 88.0357H335.703L339.642 77.5073H341.534L337.178 89.1324H335.154L331.479 79.5251H332.094L328.376 89.1324H326.352ZM350.553 89.1324V86.6758L350.442 86.2151V82.0257C350.442 81.1337 350.177 80.4465 349.65 79.9638C349.136 79.4667 348.359 79.2182 347.318 79.2182C346.629 79.2182 345.953 79.3351 345.294 79.5691C344.634 79.7884 344.075 80.0882 343.622 80.4684L342.74 78.8891C343.342 78.4066 344.061 78.041 344.897 77.7925C345.747 77.5292 346.635 77.3976 347.559 77.3976C349.159 77.3976 350.391 77.7851 351.256 78.56C352.122 79.3351 352.554 80.5195 352.554 82.1134V89.1324H350.553ZM346.724 89.2639C345.858 89.2639 345.095 89.1178 344.435 88.8253C343.789 88.5328 343.291 88.1307 342.939 87.619C342.586 87.0924 342.411 86.5003 342.411 85.8423C342.411 85.2135 342.557 84.6432 342.851 84.1314C343.159 83.6196 343.651 83.2102 344.324 82.9031C345.015 82.5959 345.938 82.4424 347.098 82.4424H350.794V83.9558H347.186C346.129 83.9558 345.418 84.1314 345.051 84.4824C344.684 84.8332 344.501 85.2573 344.501 85.7544C344.501 86.3248 344.729 86.7855 345.183 87.1364C345.638 87.4727 346.269 87.6409 347.075 87.6409C347.867 87.6409 348.558 87.4653 349.144 87.1144C349.745 86.7635 350.177 86.2517 350.442 85.579L350.86 87.0266C350.582 87.7139 350.09 88.2624 349.385 88.6718C348.682 89.0666 347.795 89.2639 346.724 89.2639ZM359.808 89.2639C358.84 89.2639 357.916 89.1324 357.036 88.8691C356.17 88.606 355.489 88.2843 354.989 87.904L355.869 86.2371C356.369 86.5734 356.984 86.8586 357.718 87.0924C358.451 87.3264 359.199 87.4434 359.962 87.4434C360.945 87.4434 361.649 87.3045 362.074 87.0266C362.515 86.7488 362.735 86.3613 362.735 85.8642C362.735 85.4987 362.603 85.2135 362.338 85.0088C362.074 84.8041 361.723 84.6504 361.282 84.5482C360.857 84.4457 360.38 84.358 359.853 84.2849C359.323 84.1972 358.796 84.0948 358.268 83.9778C357.739 83.8462 357.256 83.6708 356.816 83.4514C356.375 83.2174 356.024 82.9031 355.759 82.5082C355.495 82.0988 355.363 81.5577 355.363 80.8852C355.363 80.1832 355.561 79.5691 355.958 79.0426C356.353 78.5162 356.912 78.1142 357.63 77.8363C358.364 77.5438 359.228 77.3976 360.226 77.3976C360.989 77.3976 361.758 77.4927 362.537 77.6827C363.329 77.8582 363.973 78.1142 364.473 78.4504L363.57 80.1175C363.043 79.7665 362.492 79.5251 361.92 79.3936C361.348 79.262 360.775 79.1962 360.205 79.1962C359.28 79.1962 358.591 79.3497 358.136 79.6568C357.681 79.9492 357.453 80.3295 357.453 80.7973C357.453 81.1922 357.585 81.4993 357.85 81.7186C358.128 81.9234 358.48 82.0843 358.907 82.2011C359.346 82.3181 359.829 82.4205 360.359 82.5082C360.886 82.5814 361.414 82.6838 361.943 82.8154C362.471 82.9323 362.947 83.1004 363.372 83.3198C363.813 83.5391 364.164 83.8462 364.429 84.241C364.707 84.6359 364.847 85.1623 364.847 85.8204C364.847 86.5222 364.641 87.1291 364.23 87.6409C363.82 88.1526 363.241 88.5548 362.492 88.8472C361.745 89.125 360.849 89.2639 359.808 89.2639ZM371.492 89.2639C370.318 89.2639 369.408 88.9496 368.763 88.3208C368.117 87.692 367.794 86.7927 367.794 85.6229V74.9629H369.908V85.5352C369.908 86.164 370.062 86.6465 370.369 86.9828C370.692 87.3192 371.147 87.4873 371.734 87.4873C372.393 87.4873 372.944 87.3045 373.384 86.9389L374.044 88.4523C373.721 88.7302 373.332 88.935 372.878 89.0666C372.438 89.1982 371.975 89.2639 371.492 89.2639ZM365.815 79.2401V77.5073H373.252V79.2401H365.815ZM381.404 89.2639C380.157 89.2639 379.057 89.008 378.103 88.4963C377.165 87.9845 376.431 87.2826 375.904 86.3906C375.39 85.4987 375.133 84.475 375.133 83.3198C375.133 82.1646 375.382 81.141 375.881 80.249C376.394 79.3571 377.091 78.6625 377.971 78.1652C378.866 77.6535 379.871 77.3976 380.986 77.3976C382.115 77.3976 383.113 77.6462 383.978 78.1433C384.844 78.6405 385.519 79.3424 386.002 80.249C386.502 81.141 386.751 82.1865 386.751 83.3856C386.751 83.4733 386.743 83.5757 386.729 83.6927C386.729 83.8097 386.722 83.9193 386.706 84.0218H376.783V82.5082H385.607L384.748 83.0346C384.764 82.289 384.61 81.6236 384.287 81.0387C383.964 80.4537 383.516 80.0005 382.944 79.6788C382.387 79.3424 381.733 79.1743 380.986 79.1743C380.252 79.1743 379.6 79.3424 379.028 79.6788C378.455 80.0005 378.008 80.4611 377.685 81.0606C377.362 81.6456 377.202 82.3181 377.202 83.0785V83.4295C377.202 84.2046 377.377 84.8992 377.729 85.5133C378.096 86.1128 378.602 86.5808 379.248 86.917C379.894 87.2533 380.634 87.4215 381.47 87.4215C382.159 87.4215 382.782 87.3045 383.341 87.0705C383.913 86.8367 384.411 86.4857 384.836 86.0177L386.002 87.3776C385.474 87.9917 384.814 88.4597 384.022 88.7814C383.245 89.1031 382.372 89.2639 381.404 89.2639ZM410.182 77.3976C411.121 77.3976 411.95 77.5804 412.668 77.9459C413.386 78.3115 413.945 78.8672 414.34 79.613C414.751 80.3586 414.957 81.3018 414.957 82.4424V89.1324H412.843V82.6838C412.843 81.5577 412.58 80.7096 412.053 80.1394C411.524 79.5691 410.784 79.2839 409.83 79.2839C409.126 79.2839 408.509 79.4302 407.981 79.7226C407.454 80.015 407.043 80.4465 406.749 81.0168C406.471 81.587 406.331 82.2962 406.331 83.1444V89.1324H404.219V82.6838C404.219 81.5577 403.954 80.7096 403.427 80.1394C402.913 79.5691 402.173 79.2839 401.204 79.2839C400.515 79.2839 399.906 79.4302 399.378 79.7226C398.85 80.015 398.44 80.4465 398.146 81.0168C397.852 81.587 397.706 82.2962 397.706 83.1444V89.1324H395.592V77.5073H397.617V80.6L397.288 79.8103C397.654 79.0499 398.218 78.4578 398.981 78.0336C399.744 77.6097 400.632 77.3976 401.644 77.3976C402.759 77.3976 403.72 77.6755 404.526 78.2311C405.334 78.7721 405.861 79.5983 406.111 80.7096L405.252 80.3586C405.605 79.4667 406.221 78.7502 407.101 78.2092C407.981 77.6681 409.009 77.3976 410.182 77.3976ZM426.083 89.1324V86.6758L425.972 86.2151V82.0257C425.972 81.1337 425.709 80.4465 425.18 79.9638C424.667 79.4667 423.889 79.2182 422.848 79.2182C422.159 79.2182 421.483 79.3351 420.824 79.5691C420.164 79.7884 419.605 80.0882 419.151 80.4684L418.272 78.8891C418.873 78.4066 419.591 78.041 420.428 77.7925C421.279 77.5292 422.166 77.3976 423.089 77.3976C424.689 77.3976 425.921 77.7851 426.787 78.56C427.652 79.3351 428.085 80.5195 428.085 82.1134V89.1324H426.083ZM422.254 89.2639C421.388 89.2639 420.625 89.1178 419.965 88.8253C419.321 88.5328 418.821 88.1307 418.469 87.619C418.118 87.0924 417.941 86.5003 417.941 85.8423C417.941 85.2135 418.087 84.6432 418.381 84.1314C418.688 83.6196 419.181 83.2102 419.856 82.9031C420.545 82.5959 421.47 82.4424 422.628 82.4424H426.324V83.9558H422.715C421.66 83.9558 420.948 84.1314 420.582 84.4824C420.214 84.8332 420.031 85.2573 420.031 85.7544C420.031 86.3248 420.259 86.7855 420.713 87.1364C421.168 87.4727 421.799 87.6409 422.606 87.6409C423.398 87.6409 424.088 87.4653 424.674 87.1144C425.275 86.7635 425.709 86.2517 425.972 85.579L426.39 87.0266C426.112 87.7139 425.62 88.2624 424.917 88.6718C424.212 89.0666 423.325 89.2639 422.254 89.2639ZM438.22 77.3976C439.174 77.3976 440.011 77.5804 440.729 77.9459C441.463 78.3115 442.035 78.8672 442.446 79.613C442.857 80.3586 443.061 81.3018 443.061 82.4424V89.1324H440.949V82.6838C440.949 81.5577 440.671 80.7096 440.114 80.1394C439.571 79.5691 438.8 79.2839 437.802 79.2839C437.055 79.2839 436.402 79.4302 435.844 79.7226C435.287 80.015 434.855 80.4465 434.546 81.0168C434.253 81.587 434.106 82.2962 434.106 83.1444V89.1324H431.994V77.5073H434.018V80.6438L433.687 79.8103C434.069 79.0499 434.656 78.4578 435.449 78.0336C436.241 77.6097 437.165 77.3976 438.22 77.3976ZM454.21 89.1324V86.6758L454.101 86.2151V82.0257C454.101 81.1337 453.836 80.4465 453.309 79.9638C452.795 79.4667 452.017 79.2182 450.975 79.2182C450.286 79.2182 449.611 79.3351 448.951 79.5691C448.291 79.7884 447.734 80.0882 447.279 80.4684L446.399 78.8891C447.001 78.4066 447.719 78.041 448.556 77.7925C449.406 77.5292 450.294 77.3976 451.218 77.3976C452.816 77.3976 454.048 77.7851 454.914 78.56C455.78 79.3351 456.213 80.5195 456.213 82.1134V89.1324H454.21ZM450.381 89.2639C449.515 89.2639 448.754 89.1178 448.093 88.8253C447.448 88.5328 446.95 88.1307 446.597 87.619C446.245 87.0924 446.068 86.5003 446.068 85.8423C446.068 85.2135 446.216 84.6432 446.508 84.1314C446.817 83.6196 447.308 83.2102 447.983 82.9031C448.673 82.5959 449.597 82.4424 450.755 82.4424H454.453V83.9558H450.844C449.788 83.9558 449.076 84.1314 448.709 84.4824C448.343 84.8332 448.159 85.2573 448.159 85.7544C448.159 86.3248 448.386 86.7855 448.842 87.1364C449.295 87.4727 449.926 87.6409 450.734 87.6409C451.526 87.6409 452.215 87.4653 452.803 87.1144C453.404 86.7635 453.836 86.2517 454.101 85.579L454.518 87.0266C454.239 87.7139 453.749 88.2624 453.044 88.6718C452.34 89.0666 451.452 89.2639 450.381 89.2639ZM465.227 93.5192C464.156 93.5192 463.115 93.3656 462.102 93.0586C461.104 92.7661 460.291 92.3421 459.66 91.7864L460.672 90.1632C461.215 90.6312 461.883 90.9968 462.675 91.26C463.467 91.5379 464.294 91.6768 465.16 91.6768C466.54 91.6768 467.552 91.3551 468.197 90.7117C468.843 90.0682 469.166 89.0885 469.166 87.7725V85.3158L469.386 83.0127L469.275 80.6877V77.5073H471.278V87.553C471.278 89.6003 470.764 91.1064 469.737 92.0716C468.711 93.0367 467.206 93.5192 465.227 93.5192ZM464.962 88.6498C463.833 88.6498 462.821 88.4159 461.926 87.9479C461.046 87.4653 460.341 86.8 459.814 85.9519C459.3 85.1039 459.043 84.124 459.043 83.0127C459.043 81.8868 459.3 80.9071 459.814 80.0736C460.341 79.2254 461.046 78.5674 461.926 78.0994C462.821 77.6316 463.833 77.3976 464.962 77.3976C465.96 77.3976 466.869 77.6023 467.691 78.0117C468.512 78.4066 469.166 79.0207 469.649 79.8542C470.149 80.6877 470.398 81.7405 470.398 83.0127C470.398 84.2703 470.149 85.3158 469.649 86.1493C469.166 86.9828 468.512 87.6116 467.691 88.0357C466.869 88.4451 465.96 88.6498 464.962 88.6498ZM465.205 86.8074C465.982 86.8074 466.671 86.6465 467.272 86.3248C467.874 86.0032 468.345 85.5571 468.681 84.9869C469.034 84.4165 469.209 83.7585 469.209 83.0127C469.209 82.267 469.034 81.6089 468.681 81.0387C468.345 80.4684 467.874 80.0297 467.272 79.7226C466.671 79.4009 465.982 79.2401 465.205 79.2401C464.427 79.2401 463.73 79.4009 463.115 79.7226C462.513 80.0297 462.036 80.4684 461.684 81.0387C461.347 81.6089 461.178 82.267 461.178 83.0127C461.178 83.7585 461.347 84.4165 461.684 84.9869C462.036 85.5571 462.513 86.0032 463.115 86.3248C463.73 86.6465 464.427 86.8074 465.205 86.8074ZM480.507 89.2639C479.26 89.2639 478.16 89.008 477.206 88.4963C476.268 87.9845 475.534 87.2826 475.006 86.3906C474.493 85.4987 474.236 84.475 474.236 83.3198C474.236 82.1646 474.485 81.141 474.983 80.249C475.497 79.3571 476.194 78.6625 477.074 78.1652C477.969 77.6535 478.973 77.3976 480.089 77.3976C481.218 77.3976 482.216 77.6462 483.08 78.1433C483.946 78.6405 484.622 79.3424 485.105 80.249C485.605 81.141 485.854 82.1865 485.854 83.3856C485.854 83.4733 485.846 83.5757 485.832 83.6927C485.832 83.8097 485.825 83.9193 485.809 84.0218H475.886V82.5082H484.709L483.851 83.0346C483.866 82.289 483.711 81.6236 483.39 81.0387C483.067 80.4537 482.619 80.0005 482.047 79.6788C481.49 79.3424 480.836 79.1743 480.089 79.1743C479.355 79.1743 478.703 79.3424 478.13 79.6788C477.558 80.0005 477.111 80.4611 476.788 81.0606C476.465 81.6456 476.305 82.3181 476.305 83.0785V83.4295C476.305 84.2046 476.48 84.8992 476.832 85.5133C477.198 86.1128 477.704 86.5808 478.35 86.917C478.995 87.2533 479.736 87.4215 480.573 87.4215C481.262 87.4215 481.885 87.3045 482.444 87.0705C483.016 86.8367 483.514 86.4857 483.939 86.0177L485.105 87.3776C484.577 87.9917 483.917 88.4597 483.125 88.7814C482.348 89.1031 481.475 89.2639 480.507 89.2639ZM503.375 77.3976C504.314 77.3976 505.143 77.5804 505.861 77.9459C506.581 78.3115 507.138 78.8672 507.535 79.613C507.945 80.3586 508.15 81.3018 508.15 82.4424V89.1324H506.038V82.6838C506.038 81.5577 505.773 80.7096 505.246 80.1394C504.718 79.5691 503.977 79.2839 503.023 79.2839C502.319 79.2839 501.703 79.4302 501.174 79.7226C500.647 80.015 500.236 80.4465 499.942 81.0168C499.664 81.587 499.525 82.2962 499.525 83.1444V89.1324H497.412V82.6838C497.412 81.5577 497.149 80.7096 496.62 80.1394C496.107 79.5691 495.366 79.2839 494.398 79.2839C493.708 79.2839 493.1 79.4302 492.571 79.7226C492.043 80.015 491.633 80.4465 491.339 81.0168C491.045 81.587 490.899 82.2962 490.899 83.1444V89.1324H488.787V77.5073H490.811V80.6L490.481 79.8103C490.848 79.0499 491.413 78.4578 492.176 78.0336C492.939 77.6097 493.826 77.3976 494.838 77.3976C495.952 77.3976 496.913 77.6755 497.721 78.2311C498.527 78.7721 499.055 79.5983 499.304 80.7096L498.447 80.3586C498.798 79.4667 499.414 78.7502 500.294 78.2092C501.174 77.6681 502.202 77.3976 503.375 77.3976ZM517.23 89.2639C515.982 89.2639 514.883 89.008 513.929 88.4963C512.991 87.9845 512.257 87.2826 511.729 86.3906C511.216 85.4987 510.959 84.475 510.959 83.3198C510.959 82.1646 511.208 81.141 511.706 80.249C512.22 79.3571 512.917 78.6625 513.797 78.1652C514.692 77.6535 515.696 77.3976 516.811 77.3976C517.94 77.3976 518.939 77.6462 519.805 78.1433C520.669 78.6405 521.345 79.3424 521.829 80.249C522.327 81.141 522.577 82.1865 522.577 83.3856C522.577 83.4733 522.569 83.5757 522.555 83.6927C522.555 83.8097 522.547 83.9193 522.532 84.0218H512.609V82.5082H521.432L520.574 83.0346C520.589 82.289 520.435 81.6236 520.112 81.0387C519.789 80.4537 519.342 80.0005 518.77 79.6788C518.213 79.3424 517.559 79.1743 516.811 79.1743C516.078 79.1743 515.426 79.3424 514.853 79.6788C514.281 80.0005 513.834 80.4611 513.51 81.0606C513.189 81.6456 513.028 82.3181 513.028 83.0785V83.4295C513.028 84.2046 513.203 84.8992 513.555 85.5133C513.921 86.1128 514.427 86.5808 515.073 86.917C515.719 87.2533 516.459 87.4215 517.296 87.4215C517.985 87.4215 518.608 87.3045 519.166 87.0705C519.739 86.8367 520.237 86.4857 520.662 86.0177L521.829 87.3776C521.3 87.9917 520.64 88.4597 519.848 88.7814C519.071 89.1031 518.197 89.2639 517.23 89.2639ZM531.737 77.3976C532.69 77.3976 533.527 77.5804 534.245 77.9459C534.979 78.3115 535.551 78.8672 535.962 79.613C536.373 80.3586 536.577 81.3018 536.577 82.4424V89.1324H534.465V82.6838C534.465 81.5577 534.187 80.7096 533.629 80.1394C533.087 79.5691 532.316 79.2839 531.318 79.2839C530.571 79.2839 529.918 79.4302 529.36 79.7226C528.803 80.015 528.371 80.4465 528.062 81.0168C527.77 81.587 527.622 82.2962 527.622 83.1444V89.1324H525.51V77.5073H527.534V80.6438L527.204 79.8103C527.585 79.0499 528.173 78.4578 528.965 78.0336C529.757 77.6097 530.681 77.3976 531.737 77.3976ZM544.491 89.2639C543.318 89.2639 542.409 88.9496 541.763 88.3208C541.118 87.692 540.795 86.7927 540.795 85.6229V74.9629H542.907V85.5352C542.907 86.164 543.061 86.6465 543.37 86.9828C543.691 87.3192 544.147 87.4873 544.734 87.4873C545.394 87.4873 545.943 87.3045 546.383 86.9389L547.045 88.4523C546.722 88.7302 546.332 88.935 545.877 89.0666C545.437 89.1982 544.976 89.2639 544.491 89.2639ZM538.815 79.2401V77.5073H546.253V79.2401H538.815Z" fill="white"/>
<path d="M247.108 60.0678C247.107 60.1219 246.674 61.955 246.145 64.1414C245.617 66.3279 245.19 68.1245 245.197 68.1339C245.204 68.1433 245.416 68.1251 245.669 68.0935C246.253 68.0202 247.98 68.0175 248.624 68.0888C248.896 68.1188 249.122 68.1373 249.126 68.1301C249.145 68.1005 247.182 60.0414 247.147 60.0068C247.127 59.9863 247.109 60.0137 247.108 60.0678Z" fill="white"/>
<path d="M240.259 61.4476C240.291 61.8112 240.423 63.7367 240.668 67.4235C240.743 68.5379 240.809 69.4577 240.816 69.4675C240.823 69.4774 241.127 69.3575 241.492 69.2013C242.317 68.8475 243.06 68.5984 243.814 68.4224C244.134 68.3477 244.435 68.2713 244.482 68.2525C244.555 68.224 244.404 67.9472 243.543 66.5258C242.98 65.5948 242.024 64.0137 241.419 63.0121C240.815 62.0106 240.299 61.1681 240.274 61.1399C240.245 61.1082 240.24 61.2258 240.259 61.4476Z" fill="white"/>
<path d="M251.903 64.6675C250.119 67.6146 249.768 68.2254 249.838 68.2536C249.885 68.2724 250.193 68.3503 250.521 68.4269C251.244 68.5951 252.115 68.8896 252.887 69.2265C253.202 69.3639 253.473 69.4764 253.489 69.4764C253.506 69.4764 253.534 69.2166 253.553 68.8993C253.597 68.1341 254.02 61.9039 254.058 61.4615C254.075 61.2711 254.08 61.1153 254.071 61.1153C254.062 61.1153 253.086 62.7138 251.903 64.6675Z" fill="white"/>
<path d="M234.025 64.4532C234.133 64.7196 235.553 68.3219 236.239 70.0722L237.066 72.1818L237.518 71.7712C238.161 71.1872 238.92 70.6145 239.626 70.1823C239.962 69.9771 240.231 69.7927 240.224 69.7725C240.211 69.7317 239.834 69.4022 236.475 66.4956C235.187 65.3806 234.102 64.4486 234.064 64.4245C234.015 64.3933 234.003 64.4016 234.025 64.4532Z" fill="white"/>
<path d="M259.45 65.106C258.587 65.8581 255.97 68.1234 254.791 69.1399C254.401 69.4764 254.082 69.7649 254.082 69.7811C254.082 69.7973 254.336 69.9649 254.647 70.1535C255.302 70.551 256.23 71.2509 256.831 71.8018L257.25 72.1865L257.302 72.0501C257.33 71.975 257.998 70.2748 258.786 68.2717L259.045 67.6122C260.22 64.6252 260.308 64.4039 260.293 64.3965L260.288 64.3975L260.283 64.399C260.271 64.399 259.897 64.7171 259.45 65.106Z" fill="white"/>
<path d="M229.109 69.5338C229.132 69.5721 229.736 70.3196 230.451 71.1948C233.267 74.6422 233.689 75.1589 233.981 75.5176C234.147 75.7221 234.296 75.8894 234.312 75.8894C234.327 75.8894 234.439 75.7105 234.559 75.4918C235.008 74.6788 235.632 73.7944 236.308 73.0143L236.644 72.6269L232.904 71.0651C230.848 70.206 229.143 69.4944 229.116 69.4837C229.087 69.4721 229.084 69.4923 229.109 69.5338Z" fill="white"/>
<path d="M265.038 69.5465C264.969 69.5832 263.285 70.2904 261.294 71.1182L257.676 72.6232L258.05 73.0558C258.583 73.6727 259.233 74.586 259.636 75.2849C259.827 75.616 259.996 75.8869 260.011 75.8872C260.027 75.8875 260.587 75.2146 261.256 74.392C261.925 73.5694 263.082 72.1517 263.825 71.2417C264.568 70.3316 265.192 69.562 265.211 69.5314C265.254 69.4586 265.192 69.464 265.038 69.5465Z" fill="white"/>
<path d="M225.944 75.9451C225.985 75.9736 227.542 76.9755 229.405 78.1716C232.203 79.9684 232.797 80.3312 232.823 80.2585C232.841 80.2102 232.925 79.8672 233.01 79.4963C233.194 78.6977 233.458 77.8754 233.785 77.0774C233.916 76.7585 234.015 76.4913 234.005 76.4834C233.995 76.4756 233.572 76.4407 233.065 76.406C232.559 76.3712 230.743 76.2404 229.032 76.1153C227.319 75.9902 225.908 75.889 225.894 75.8906C225.88 75.8922 225.903 75.9167 225.944 75.9451Z" fill="white"/>
<path d="M266.607 76.015C265.786 76.0782 264.037 76.2065 262.722 76.3002C261.408 76.3939 260.323 76.4769 260.314 76.4845C260.303 76.4922 260.402 76.7593 260.533 77.0782C260.863 77.8834 261.165 78.8285 261.325 79.5558C261.4 79.8944 261.476 80.211 261.494 80.2596C261.522 80.3327 262.109 79.9738 264.963 78.1398C266.853 76.9254 268.408 75.922 268.421 75.91C268.451 75.8773 268.236 75.8898 266.607 76.015Z" fill="white"/>
<path d="M228.77 81.9864C226.613 82.5381 224.848 83.0019 224.848 83.0173C224.848 83.0432 232.677 85.0623 232.705 85.0436C232.712 85.039 232.694 84.8065 232.665 84.527C232.594 83.8558 232.596 82.1189 232.668 81.5006C232.699 81.2302 232.717 81.0031 232.709 80.9962C232.699 80.9891 230.927 81.4347 228.77 81.9864Z" fill="white"/>
<path d="M261.602 81.0338C261.602 81.0683 261.625 81.2924 261.654 81.5322C261.722 82.1149 261.719 83.9606 261.65 84.5535C261.619 84.815 261.601 85.0348 261.61 85.042C261.619 85.0491 262.859 84.7383 264.366 84.351C265.872 83.9637 267.655 83.5079 268.326 83.3381C268.996 83.1682 269.511 83.0157 269.47 82.9995C269.43 82.9832 267.67 82.5304 265.561 81.9936C263.453 81.4567 261.699 81.0071 261.664 80.9944C261.63 80.9816 261.602 80.9994 261.602 81.0338Z" fill="white"/>
<path d="M231.297 86.6488C230.475 87.1769 228.924 88.1731 227.85 88.8627C226.775 89.5522 225.903 90.1234 225.911 90.1318C225.92 90.1401 226.373 90.1133 226.919 90.072C228.364 89.9628 233.552 89.5879 233.8 89.5749C233.916 89.5688 234.012 89.5516 234.012 89.5367C234.012 89.5219 233.907 89.2551 233.78 88.9439C233.455 88.1521 233.152 87.2036 232.993 86.4805C232.918 86.1419 232.843 85.8253 232.825 85.7768C232.797 85.7031 232.547 85.846 231.297 86.6488Z" fill="white"/>
<path d="M261.482 85.7983C261.261 86.8878 260.933 87.9838 260.55 88.9175C260.416 89.2419 260.307 89.5247 260.307 89.5458C260.307 89.5671 260.409 89.5845 260.533 89.5845C260.747 89.5845 262.896 89.7367 266.703 90.0218C267.632 90.0912 268.4 90.1404 268.409 90.1312C268.418 90.1217 268.195 89.9675 267.915 89.7882C267.634 89.609 266.16 88.6635 264.64 87.6871C263.121 86.7108 261.793 85.8597 261.692 85.7959L261.506 85.6798L261.482 85.7983Z" fill="white"/>
<path d="M233.685 90.8773C233.059 91.6481 231.561 93.4841 230.054 95.327C229.557 95.9336 229.134 96.4591 229.114 96.4946C229.105 96.5084 229.093 96.5221 229.096 96.5278C229.108 96.5517 229.389 96.4342 231.384 95.5998L231.846 95.4066C233.106 94.8797 234.7 94.2153 235.388 93.93L236.64 93.4114L236.204 92.8945C235.653 92.2421 235.021 91.3455 234.635 90.6701C234.47 90.3823 234.323 90.1466 234.307 90.1465C234.292 90.1463 234.012 90.4752 233.685 90.8773Z" fill="white"/>
<path d="M259.647 90.7311C259.246 91.4272 258.575 92.3725 258.055 92.9741L257.677 93.4112L260.25 94.4812C261.665 95.0695 263.359 95.7768 264.016 96.053C264.673 96.3292 265.216 96.5478 265.225 96.5391C265.232 96.5303 264.563 95.6947 263.737 94.682C262.91 93.6694 261.741 92.235 261.136 91.4944C260.533 90.7538 260.027 90.1481 260.012 90.1484C259.996 90.1486 259.832 90.4108 259.647 90.7311Z" fill="white"/>
<path d="M236.078 96.3716C235.534 97.7576 234.847 99.5025 234.552 100.249C234.257 100.996 234.022 101.613 234.03 101.621C234.037 101.628 234.793 100.987 235.708 100.195C236.624 99.403 238.018 98.1978 238.805 97.5167C239.593 96.8354 240.237 96.2646 240.237 96.2479C240.237 96.2311 240.142 96.1632 240.025 96.0968C239.236 95.6459 238.373 95.0143 237.569 94.2984L237.067 93.8516L236.078 96.3716Z" fill="white"/>
<path d="M256.921 94.1561C256.421 94.629 255.297 95.4827 254.659 95.8736C254.342 96.0675 254.083 96.2377 254.083 96.2518C254.083 96.2659 254.256 96.4283 254.468 96.6126C254.871 96.9625 256.326 98.2225 258.808 100.372C259.613 101.069 260.279 101.632 260.289 101.623C260.296 101.615 260.161 101.251 259.989 100.815C259.815 100.379 259.152 98.6947 258.515 97.0725C257.878 95.4504 257.332 94.0615 257.301 93.9863L257.245 93.8494L256.921 94.1561Z" fill="white"/>
<path d="M240.767 97.1377C240.722 97.9203 240.299 104.139 240.26 104.588C240.243 104.786 240.24 104.936 240.254 104.921C240.316 104.857 244.562 97.818 244.548 97.803C244.539 97.7937 244.277 97.7273 243.967 97.6553C243.232 97.4851 242.16 97.1279 241.436 96.8122C241.119 96.6739 240.846 96.5605 240.83 96.5605C240.814 96.5605 240.785 96.8203 240.767 97.1377Z" fill="white"/>
<path d="M252.911 96.793C252.26 97.0898 251.174 97.4555 250.404 97.638C250.065 97.7183 249.78 97.7916 249.771 97.8008C249.758 97.8151 253.866 104.635 254.029 104.868C254.069 104.925 254.076 104.85 254.056 104.586C254.029 104.234 253.921 102.653 253.648 98.5977C253.563 97.3361 253.491 96.5601 253.46 96.5625C253.432 96.5645 253.185 96.6683 252.911 96.793Z" fill="white"/>
<path d="M245.193 97.9585C245.206 97.9938 245.642 99.8 246.163 101.972C246.684 104.145 247.124 105.957 247.139 105.999C247.155 106.041 247.326 105.418 247.519 104.614C247.712 103.81 248.154 101.975 248.502 100.536C248.851 99.0973 249.13 97.9124 249.123 97.9028C249.116 97.8935 248.903 97.9117 248.65 97.9433C248.071 98.016 246.339 98.0195 245.715 97.9493L245.607 97.9372C245.272 97.8992 245.191 97.8901 245.181 97.913C245.178 97.9202 245.182 97.9306 245.188 97.9444C245.189 97.9487 245.191 97.9534 245.193 97.9585Z" fill="white"/>
<path d="M121.225 78.466H111.619C110.802 78.466 110.064 78.7389 109.405 79.2849C108.761 79.8161 108.338 80.5171 108.137 81.3876H121.01V83.9995H108.052C108.094 85.0619 108.453 85.9399 109.126 86.6333C109.799 87.3121 110.58 87.6516 111.468 87.6516H121.225V90.2412H110.974C109.441 90.2412 108.059 89.6583 106.827 88.4926C105.609 87.3121 105 85.8366 105 84.0659V82.0296C105 80.2736 105.63 78.8053 106.891 77.625C108.166 76.4297 109.592 75.832 111.167 75.832H121.225V78.466Z" fill="white"/>
<path d="M165.509 87.6508V90.2405H155.259C153.54 90.2405 152.143 89.6724 151.068 88.5362C150.008 87.4 149.478 85.9096 149.478 84.0651V75.8535H152.53V83.7552C152.53 84.9209 152.838 85.8653 153.454 86.5884C154.07 87.2966 154.908 87.6508 155.968 87.6508H165.509Z" fill="white"/>
<path d="M192.702 75.8535H195.754V81.4312H201.792C202.423 81.4312 202.924 81.3574 203.296 81.2099C203.683 81.0475 204.02 80.7082 204.306 80.1916L206.692 75.8535H210.066L207.057 81.3427C206.599 82.1543 206.112 82.6558 205.596 82.8478C206.369 83.01 206.971 83.5117 207.401 84.3528L210.495 90.2405H207.122L204.65 85.4816C204.378 84.9652 204.013 84.6036 203.554 84.3971C203.11 84.1758 202.444 84.0651 201.556 84.0651H195.754V90.2405H192.702V75.8535Z" fill="white"/>
<path fill-rule="evenodd" clip-rule="evenodd" d="M286.641 84.1088V90.2176H283.611V75.875H295.042C296.547 75.875 297.665 76.2439 298.396 76.9818C299.14 77.7047 299.512 78.6122 299.512 79.7042C299.512 80.5452 299.262 81.3051 298.76 81.984C298.259 82.6479 297.479 83.0979 296.418 83.3341C297.35 83.6145 298.037 84.3227 298.482 85.4589L300.351 90.2399H297.064L295.622 86.3664C295.309 85.5106 294.886 84.9203 294.355 84.5957C293.84 84.2711 293.187 84.1088 292.4 84.1088H286.641ZM294.592 78.4646H286.641V81.4749H294.57C295.172 81.4749 295.622 81.3347 295.924 81.0543C296.225 80.7591 296.375 80.4051 296.375 79.9918C296.375 79.5639 296.225 79.2025 295.924 78.9073C295.638 78.6122 295.193 78.4646 294.592 78.4646Z" fill="white"/>
<defs>
<linearGradient id="paint0_linear_2044_360" x1="0" y1="0" x2="606.247" y2="264.048" gradientUnits="userSpaceOnUse">
<stop stop-color="#08D070"/>
<stop offset="1" stop-color="#08D070" stop-opacity="0"/>
</linearGradient>
</defs>
</svg>
